#!OML:ASF H:\Terrain\Patient Classification 1\Walking\liu\liu.ASF
:FULLY-SPECIFIED
:DEGREES
162
root 9.06971 16.8202 1.39169 6.84388 -3.12427 2.14477
lowerback -2.71573 1.54189 -4.43784
upperback -0.330287 2.17614 0.954007
thorax 0.980301 1.07119 3.54331
lowerneck -21.8304 -4.55039 -12.1413
upperneck 20.7449 -5.52638 12.646
head 11.0352 -1.97343 5.80786
rclavicle 1.80397e-014 3.97569e-016
rhumerus -29.5809 15.2745 -88.7463
rradius 36.2842
rwrist -19.8805
rhand -36.3307 -27.1732
rfingers 7.12502
rthumb -9.42892 -56.9423
lclavicle 1.80397e-014 3.97569e-016
lhumerus -42.4259 1.24224 84.2255
lradius 18.9894
lwrist -4.38112
lhand -15.1157 -28.0368
lfingers 7.12502
lthumb 11.0532 1.65214
rfemur -17.0443 -4.08544 18.0008
rtibia 72.206
rfoot 2.1927 -16.3949
rtoes -14.3299
lfemur -27.3799 5.89386 -27.7995
ltibia 30.406
lfoot -9.44634 -1.07613
ltoes -1.4353
163
root 9.10768 16.8858 1.64805 6.59348 -3.05853 2.61736
lowerback -2.88455 1.3823 -4.70168
upperback -0.3054 1.98071 0.883307
thorax 1.11247 0.96857 3.61885
lowerneck -21.6483 -4.37767 -12.016
upperneck 20.9797 -5.32576 12.4934
head 11.0479 -1.89583 5.76925
rclavicle -1.75427e-014 6.36111e-015
rhumerus -30.4843 14.4494 -88.7337
rradius 34.8868
rwrist -19.1124
rhand -36.1235 -25.9751
rfingers 7.12502
rthumb -9.22893 -55.7532
lclavicle -1.75427e-014 6.36111e-015
lhumerus -41.7651 -0.119411 85.4578
lradius 19.8374
lwrist -4.28499
lhand -15.3666 -28.1186
lfingers 7.12502
lthumb 10.8111 1.58319
rfemur -17.9212 -4.1086 17.4542
rtibia 72.8396
rfoot 0.921411 -15.8653
rtoes -14.1952
lfemur -25.2923 6.22116 -28.4783
ltibia 29.2728
lfoot -10.3729 -1.31553
ltoes -1.81403
164
root 9.12837 16.9188 1.84508 6.73712 -2.79302 2.88091
lowerback -2.96657 1.20297 -4.93413
upperback -0.334236 1.7522 0.917633
thorax 1.14287 0.853038 3.77983
lowerneck -21.7439 -4.32915 -11.9205
upperneck 21.1102 -5.2297 12.2666
head 11.0896 -1.86848 5.68666
rclavicle 2.03257e-014 -7.95139e-016
rhumerus -30.6954 13.4747 -88.4241
rradius 33.0761
rwrist -18.2963
rhand -35.9122 -24.2399
rfingers 7.12502
rthumb -9.0251 -54.0268
lclavicle 2.03257e-014 -7.95139e-016
lhumerus -40.9155 -2.15354 87.1392
lradius 20.7766
lwrist -3.19172
lhand -15.1228 -27.961
lfingers 7.12502
lthumb 11.0463 1.72831
rfemur -19.7047 -3.7689 17.53
rtibia 73.4797
rfoot -2.41111 -14.968
rtoes -17.9794
lfemur -24.0098 6.05219 -28.7874
ltibia 28.117
lfoot -10.8078 -1.44614
ltoes -1.74776
165
root 9.14 16.9534 2.01843 6.95146 -2.39113 3.28512
lowerback -2.81938 1.01824 -5.36935
upperback -0.438164 1.50972 0.875082
thorax 0.967681 0.737362 3.96796
lowerneck -21.8266 -4.37437 -11.9672
upperneck 21.1879 -5.28514 12.303
head 11.1449 -1.89102 5.70346
rclavicle -3.32467e-014 -1.27222e-014
rhumerus -31.2006 12.6281 -88.2035
rradius 31.8557
rwrist -17.7473
rhand -36.0466 -24.6986
rfingers 7.12502
rthumb -9.15479 -54.4799
lclavicle -3.32467e-014 -1.27222e-014
lhumerus -40.1052 -4.83701 88.9095
lradius 21.7428
lwrist -1.62945
lhand -13.676 -27.1812
lfingers 7.12502
lthumb 12.4415 2.42849
rfemur -21.7445 -3.75347 17.4646
rtibia 73.8585
rfoot -3.01691 -15.1267
rtoes -13.5807
lfemur -22.8194 5.50759 -29.1682
ltibia 26.6973
lfoot -10.8728 -1.30536
ltoes -1.79419
166
root 9.17938 16.9893 2.268 6.59958 -2.27089 4.36106
lowerback -3.09388 0.828426 -6.19507
upperback -0.193908 1.31075 0.612215
thorax 1.38328 0.615784 4.16359
lowerneck -21.7814 -4.32607 -12.0187
upperneck 21.1971 -5.20239 12.2943
head 11.1286 -1.86026 5.72279
rclavicle 7.65321e-015 5.96354e-015
rhumerus -32.0313 12.2792 -88.0937
rradius 31.1028
rwrist -17.4187
rhand -36.8316 -24.1178
rfingers 7.12502
rthumb -9.91221 -53.8645
lclavicle 7.65321e-015 5.96354e-015
lhumerus -39.2581 -6.66422 89.9809
lradius 22.7234
lwrist -1.22607
lhand -12.2804 -26.4166
lfingers 7.12502
lthumb 13.7867 3.10657
rfemur -22.5326 -4.04206 16.1288
rtibia 73.9374
rfoot -3.76769 -14.0362
rtoes -11.8408
lfemur -20.909 5.43617 -30.4675
ltibia 25.9656
lfoot -11.7629 -1.21446
ltoes -2.66128
167
root 9.19201 17.0042 2.45577 6.54831 -1.89296 4.07214
lowerback -2.99672 0.576735 -5.96745
upperback -0.0740626 0.961302 0.809884
thorax 1.49394 0.435682 4.22707
lowerneck -21.9769 -4.17202 -11.7921
upperneck 21.2677 -4.96103 11.9795
head 11.1402 -1.76372 5.60537
rclavicle 1.1281e-014 8.74653e-015
rhumerus -32.6703 12.0078 -87.8884
rradius 30.4838
rwrist -16.9587
rhand -37.1378 -21.4541
rfingers 7.12502
rthumb -10.2076 -51.1865
lclavicle 1.1281e-014 8.74653e-015
lhumerus -38.3483 -8.18292 90.843
lradius 23.8422
lwrist -0.82783
lhand -12.9111 -26.5673
lfingers 7.12502
lthumb 13.1789 2.99622
rfemur -24.0876 -3.89537 16.8612
rtibia 73.8804
rfoot -4.87251 -13.347
rtoes -14.2705
lfemur -19.8148 5.20108 -30.0865
ltibia 25.4565
lfoot -12.0548 -1.29813
ltoes -3.10969
168
root 9.18161 16.9891 2.5864 7.01244 -1.27993 2.66742
lowerback -2.77966 0.331031 -4.85414
upperback -0.199705 0.573933 1.35604
thorax 1.29252 0.256517 4.14682
lowerneck -22.1952 -4.05019 -11.5366
upperneck 21.3339 -4.79778 11.7547
head 11.1691 -1.6891 5.50521
rclavicle 1.41634e-014 -7.95139e-016
rhumerus -33.3377 11.4894 -87.5898
rradius 30.1242
rwrist -16.4035
rhand -36.4495 -21.7897
rfingers 7.12502
rthumb -9.5435 -51.5536
lclavicle 1.41634e-014 -7.95139e-016
lhumerus -37.5306 -10.1838 91.9687
lradius 25.0462
lwrist 0.849748
lhand -14.4148 -26.8322
lfingers 7.12502
lthumb 11.7292 2.81943
rfemur -26.5977 -3.32933 19.2251
rtibia 73.686
rfoot -5.91327 -13.674
rtoes -14.1227
lfemur -19.8504 4.65535 -28.3586
ltibia 25.3152
lfoot -11.9912 -1.30492
ltoes -1.9689
169
root 9.20426 17.0031 2.78946 6.9387 -1.06079 2.77317
lowerback -2.85141 0.181161 -4.91649
upperback -0.0581315 0.380896 1.41554
thorax 1.49885 0.150635 4.23818
lowerneck -22.2847 -4.0021 -11.4424
upperneck 21.338 -4.72777 11.661
head 11.1725 -1.65823 5.46498
rclavicle -3.52843e-015 -9.93923e-015
rhumerus -34.0797 11.1832 -87.4317
rradius 29.1539
rwrist -15.4963
rhand -36.2501 -22.6212
rfingers 7.12502
rthumb -9.3511 -52.3938
lclavicle -3.52843e-015 -9.93923e-015
lhumerus -36.7575 -12.7344 93.2153
lradius 26.2402
lwrist 3.39156
lhand -14.5154 -25.9548
lfingers 7.12502
lthumb 11.6321 3.70229
rfemur -27.875 -3.04723 19.2624
rtibia 73.1871
rfoot -7.40243 -12.9795
rtoes -10.5786
lfemur -18.9828 4.46664 -28.5105
ltibia 25.3966
lfoot -12.7768 -1.10172
ltoes -2.50116
170
root 9.22256 17.0189 2.98868 6.92498 -0.658257 2.64462
lowerback -2.72736 -0.0427326 -4.75758
upperback -0.0589766 0.0691697 1.53994
thorax 1.46254 -0.00357963 4.26451
lowerneck -22.4231 -3.93155 -11.3242
upperneck 21.4373 -4.62674 11.5288
head 11.2146 -1.615 5.41514
rclavicle 9.93923e-016 1.35174e-014
rhumerus -34.7148 10.7511 -87.1521
rradius 28.3959
rwrist -15.0968
rhand -34.9329 -26.4563
rfingers 7.12502
rthumb -8.08006 -56.2819
lclavicle 9.93923e-016 1.35174e-014
lhumerus -36.0434 -14.8123 93.9318
lradius 27.3623
lwrist 4.77216
lhand -13.8353 -25.1142
lfingers 7.12502
lthumb 12.288 4.50475
rfemur -29.1201 -2.91082 19.5692
rtibia 72.4541
rfoot -8.65774 -12.1662
rtoes -7.02114
lfemur -18.1738 4.19849 -28.3872
ltibia 25.4292
lfoot -13.6569 -0.962665
ltoes -5.86188
171
root 9.23033 17.023 3.17652 6.85956 -0.147538 2.65109
lowerback -2.36769 -0.344981 -4.89611
upperback -0.147008 -0.350309 1.68666
thorax 1.21755 -0.206176 4.47986
lowerneck -22.4163 -3.79018 -11.3006
upperneck 21.5567 -4.43578 11.4951
head 11.2296 -1.53129 5.43441
rclavicle -9.83984e-015 1.59028e-015
rhumerus -35.4985 10.2406 -86.721
rradius 27.7426
rwrist -14.3278
rhand -34.9037 -26.7847
rfingers 7.12502
rthumb -8.05181 -56.6114
lclavicle -9.83984e-015 1.59028e-015
lhumerus -35.2251 -15.644 94.0567
lradius 28.1739
lwrist 4.59145
lhand -13.1599 -25.0302
lfingers 7.12502
lthumb 12.939 4.54862
rfemur -30.3213 -2.85275 19.7964
rtibia 71.4924
rfoot -9.49533 -11.6078
rtoes -7.71227
lfemur -17.177 3.83186 -28.3232
ltibia 25.0699
lfoot -14.268 -0.929095
ltoes -8.43397
172
root 9.24134 17.0265 3.36933 6.71524 0.319872 2.84646
lowerback -2.18376 -0.584558 -5.1399
upperback -0.0747511 -0.672383 1.73948
thorax 1.22917 -0.370962 4.66266
lowerneck -22.2167 -3.71997 -11.4999
upperneck 21.4296 -4.33794 11.7184
head 11.1415 -1.48169 5.56428
rclavicle 1.32689e-014 -7.95139e-016
rhumerus -36.3258 9.63062 -86.2574
rradius 27.3898
rwrist -13.4667
rhand -35.3125 -24.9026
rfingers 7.12502
rthumb -8.44634 -54.7137
lclavicle 1.32689e-014 -7.95139e-016
lhumerus -34.1965 -16.6504 94.189
lradius 29.0036
lwrist 4.79554
lhand -13.1164 -25.4164
lfingers 7.12502
lthumb 12.981 4.15972
rfemur -31.3617 -2.84311 19.7686
rtibia 70.3418
rfoot -9.74859 -11.2201
rtoes -11.5866
lfemur -16.1989 3.54315 -28.4905
ltibia 24.9579
lfoot -14.7844 -0.863045
ltoes -8.86958
173
root 9.25474 17.0267 3.5663 6.6722 0.778107 2.70207
lowerback -2.10382 -0.761301 -4.91718
upperback -0.0420052 -0.918031 1.80355
thorax 1.2448 -0.494043 4.59497
lowerneck -22.0291 -3.72342 -11.5665
upperneck 21.3205 -4.35716 11.813
head 11.0722 -1.4894 5.60304
rclavicle -4.47266e-016 -8.74653e-015
rhumerus -37.4292 9.35224 -86.0157
rradius 27.2604
rwrist -13.1137
rhand -33.6052 -22.6646
rfingers 7.12502
rthumb -6.79845 -52.5355
lclavicle -4.47266e-016 -8.74653e-015
lhumerus -33.4225 -18.5116 94.5223
lradius 30.1658
lwrist 5.98418
lhand -14.2318 -26.2753
lfingers 7.12502
lthumb 11.9056 3.3662
rfemur -32.4692 -2.70663 20.0667
rtibia 69.0283
rfoot -9.97626 -10.8918
rtoes -14.3888
lfemur -15.3197 3.11408 -28.3047
ltibia 24.9448
lfoot -15.359 -0.744751
ltoes -7.7742
174
root 9.26616 17.0128 3.76129 6.70312 1.12539 2.38882
lowerback -1.94771 -0.916255 -4.59481
upperback -0.0883319 -1.14152 1.94125
thorax 1.13182 -0.600473 4.55012
lowerneck -22.1845 -3.71149 -11.4468
upperneck 21.5164 -4.33839 11.655
head 11.1646 -1.48649 5.53394
rclavicle 1.96797e-014 -1.19271e-014
rhumerus -38.5351 9.51767 -85.9151
rradius 27.1018
rwrist -13.1338
rhand -31.4585 -22.8644
rfingers 7.12502
rthumb -4.72583 -52.7917
lclavicle 1.96797e-014 -1.19271e-014
lhumerus -32.6794 -20.1233 94.7391
lradius 31.3064
lwrist 7.32033
lhand -14.9308 -26.7304
lfingers 7.12502
lthumb 11.2315 2.94892
rfemur -33.5855 -2.37586 20.5387
rtibia 67.552
rfoot -11.046 -10.5524
rtoes -15.0861
lfemur -14.5446 2.68312 -27.9317
ltibia 24.9027
lfoot -15.957 -0.667928
ltoes -4.82293
175
root 9.27918 16.9935 3.9548 6.7304 1.50147 2.47401
lowerback -1.8599 -1.12222 -4.71156
upperback 0.00870466 -1.41747 1.99673
thorax 1.21819 -0.744052 4.66529
lowerneck -22.6436 -3.70057 -11.2572
upperneck 21.7472 -4.29146 11.4096
head 11.3207 -1.46766 5.42735
rclavicle 1.09332e-015 2.38542e-015
rhumerus -39.1114 9.37173 -85.6566
rradius 26.8099
rwrist -13.0128
rhand -32.3878 -24.3182
rfingers 7.12502
rthumb -5.62318 -54.2236
lclavicle 1.09332e-015 2.38542e-015
lhumerus -31.6381 -21.5545 94.7803
lradius 32.3049
lwrist 8.61385
lhand -15.2221 -26.8193
lfingers 7.12502
lthumb 10.9505 2.87514
rfemur -34.6465 -2.21629 20.5331
rtibia 65.9556
rfoot -12.4028 -10.2571
rtoes -16.1971
lfemur -13.7907 2.28612 -28.0108
ltibia 24.9007
lfoot -16.6786 -0.530298
ltoes -2.60152
176
root 9.29225 16.9839 4.1439 6.76933 2.0952 2.86568
lowerback -1.74416 -1.41315 -5.07236
upperback 0.104886 -1.80175 1.93866
thorax 1.30664 -0.943343 4.79716
lowerneck -22.8746 -3.65339 -11.0908
upperneck 21.7701 -4.21641 11.2465
head 11.3547 -1.43348 5.35064
rclavicle -2.5842e-015 -7.15625e-015
rhumerus -39.7965 8.95347 -85.3538
rradius 26.7383
rwrist -12.6943
rhand -33.6976 -23.0433
rfingers 7.12502
rthumb -6.8877 -52.9113
lclavicle -2.5842e-015 -7.15625e-015
lhumerus -30.6624 -23.0835 94.6944
lradius 33.3104
lwrist 9.48759
lhand -16.1251 -27.0039
lfingers 7.12502
lthumb 10.0795 2.73468
rfemur -35.6674 -2.2445 20.0765
rtibia 64.2222
rfoot -13.3368 -10.1335
rtoes -16.8773
lfemur -12.8817 1.75928 -28.398
ltibia 24.6043
lfoot -17.3783 -0.553784
ltoes -0.673482
